<?xml version="1.0" encoding="UTF-8" standalone="no"?>
<svg
   xmlns:osb="http://www.openswatchbook.org/uri/2009/osb"
   xmlns:dc="http://purl.org/dc/elements/1.1/"
   xmlns:cc="http://creativecommons.org/ns#"
   xmlns:rdf="http://www.w3.org/1999/02/22-rdf-syntax-ns#"
   xmlns:svg="http://www.w3.org/2000/svg"
   xmlns="http://www.w3.org/2000/svg"
   xmlns:xlink="http://www.w3.org/1999/xlink"
   xmlns:sodipodi="http://sodipodi.sourceforge.net/DTD/sodipodi-0.dtd"
   xmlns:inkscape="http://www.inkscape.org/namespaces/inkscape"
   width="458mm"
   height="324mm"
   viewBox="0 0 458 324"
   version="1.1"
   id="svg8"
   inkscape:version="1.0.1 (3bc2e813f5, 2020-09-07)"
   sodipodi:docname="drawing.svg">
  <defs
     id="defs2">
    <linearGradient
       id="linearGradient3099"
       osb:paint="solid">
      <stop
         style="stop-color:#848bdd;stop-opacity:1;"
         offset="0"
         id="stop3097" />
    </linearGradient>
    <linearGradient
       id="linearGradient3089"
       osb:paint="solid">
      <stop
         style="stop-color:#2b1100;stop-opacity:1;"
         offset="0"
         id="stop3087" />
    </linearGradient>
    <inkscape:path-effect
       effect="spiro"
       id="path-effect971"
       is_visible="true"
       lpeversion="1" />
    <linearGradient
       inkscape:collect="always"
       id="linearGradient945">
      <stop
         style="stop-color:#a445cb;stop-opacity:0.52208835"
         offset="0"
         id="stop941" />
      <stop
         style="stop-color:#a445cb;stop-opacity:0;"
         offset="1"
         id="stop943" />
    </linearGradient>
    <linearGradient
       id="linearGradient929"
       osb:paint="solid">
      <stop
         style="stop-color:#e071e3;stop-opacity:1;"
         offset="0"
         id="stop927" />
    </linearGradient>
    <inkscape:path-effect
       effect="spiro"
       id="path-effect869"
       is_visible="true"
       lpeversion="1" />
    <inkscape:path-effect
       effect="spiro"
       id="path-effect851"
       is_visible="true"
       lpeversion="1" />
    <linearGradient
       inkscape:collect="always"
       xlink:href="#linearGradient945"
       id="linearGradient947"
       x1="-65.270294"
       y1="219.55952"
       x2="61.455299"
       y2="197.54619"
       gradientUnits="userSpaceOnUse"
       gradientTransform="matrix(0.70033805,0,0,0.69579463,138.45269,124.33532)" />
    <linearGradient
       inkscape:collect="always"
       xlink:href="#linearGradient945"
       id="linearGradient4799"
       x1="241.36047"
       y1="308.97287"
       x2="467.78333"
       y2="60.536667"
       gradientUnits="userSpaceOnUse" />
    <filter
       inkscape:collect="always"
       style="color-interpolation-filters:sRGB"
       id="filter4803"
       x="-0.00059031599"
       width="1.0011806"
       y="-0.0006350418"
       height="1.0012701">
      <feGaussianBlur
         inkscape:collect="always"
         stdDeviation="0.068801115"
         id="feGaussianBlur4805" />
    </filter>
    <filter
       inkscape:collect="always"
       style="color-interpolation-filters:sRGB"
       id="filter4919"
       x="-0.024987041"
       width="1.0499741"
       y="-0.015317974"
       height="1.0306359">
      <feGaussianBlur
         inkscape:collect="always"
         stdDeviation="0.46385868"
         id="feGaussianBlur4921" />
    </filter>
  </defs>
  <sodipodi:namedview
     id="base"
     pagecolor="#ffffff"
     bordercolor="#666666"
     borderopacity="1.0"
     inkscape:pageopacity="0.0"
     inkscape:pageshadow="2"
     inkscape:zoom="0.33653846"
     inkscape:cx="761.47938"
     inkscape:cy="560"
     inkscape:document-units="mm"
     inkscape:current-layer="layer1"
     inkscape:document-rotation="0"
     showgrid="false"
     units="mm"
     inkscape:showpageshadow="false"
     borderlayer="true"
     inkscape:window-width="1366"
     inkscape:window-height="745"
     inkscape:window-x="-8"
     inkscape:window-y="-8"
     inkscape:window-maximized="1" />
  <metadata
     id="metadata5">
    <rdf:RDF>
      <cc:Work
         rdf:about="">
        <dc:format>image/svg+xml</dc:format>
        <dc:type
           rdf:resource="http://purl.org/dc/dcmitype/StillImage" />
        <dc:title></dc:title>
      </cc:Work>
    </rdf:RDF>
  </metadata>
  <g
     inkscape:label="Layer 1"
     inkscape:groupmode="layer"
     id="layer1">
    <path
       style="mix-blend-mode:normal;fill:url(#linearGradient4799);fill-opacity:1.0;stroke:none;stroke-width:0.264583px;stroke-linecap:butt;stroke-linejoin:miter;stroke-opacity:1;filter:url(#filter4803)"
       d="m 360.96883,151.14936 c 5.46595,-3.70864 8.82815,-9.73263 11.92121,-15.56904 3.09306,-5.83641 6.28407,-11.91306 11.56492,-15.88085 3.33161,-2.50322 7.38127,-4.02764 11.53237,-4.39381 4.15111,-0.36617 8.39144,0.42083 12.15702,2.20583 3.76557,1.78499 7.05007,4.55881 9.48237,7.94255 2.4323,3.38374 4.01193,7.3681 4.61033,11.49214 1.07377,7.40016 -1.00275,14.96196 -4.31647,21.66528 -3.31373,6.70333 -7.82828,12.72409 -12.02174,18.91523 -3.34655,4.94079 -6.51537,10.0383 -8.8376,15.5354 -2.32223,5.4971 -3.78228,11.43181 -3.59124,17.39623 0.19104,5.96442 2.11709,11.9642 5.96065,16.52904 1.92179,2.28243 4.30472,4.18636 6.99332,5.48025 2.68859,1.29389 5.68301,1.97 8.66513,1.8718 4.37416,-0.14404 8.50403,-1.90459 12.66785,-3.25239 2.08191,-0.67389 4.2076,-1.2515 6.38469,-1.47236 2.17709,-0.22086 4.41695,-0.0744 6.47589,0.66669 3.38718,1.21925 6.09592,4.03589 7.47274,7.36214 1.37682,3.32624 1.47638,7.11081 0.58411,10.59842 -0.89227,3.4876 -2.73743,6.6878 -5.06616,9.43308 -2.32873,2.74528 -5.1338,5.05467 -8.0964,7.09979 -14.57254,10.05961 -32.4819,13.63182 -49.48589,18.57338 -22.34883,6.49484 -43.82078,15.67005 -65.90261,23.02164 -21.20327,7.0591 -43.52107,12.47666 -65.74585,10.13823 -11.1124,-1.16922 -22.08586,-4.31408 -31.79054,-9.85227 -9.70467,-5.5382 -18.10448,-13.52711 -23.50765,-23.3076 -4.56054,-8.25521 -6.91662,-17.61163 -7.67178,-27.01253 -0.75516,-9.40089 0.0489,-18.87 1.51789,-28.18608 2.93791,-18.63215 8.53353,-36.87345 9.76715,-55.69542 0.80356,-12.26041 -0.45642,-25.20326 -7.14797,-35.50795 -4.98729,-7.6802 -12.57526,-13.27467 -18.40444,-20.33718 -2.9146,-3.53126 -5.41151,-7.48907 -6.70158,-11.88229 -1.29006,-4.39322 -1.29505,-9.264876 0.59873,-13.433596 1.50978,-3.323439 4.16871,-6.068341 7.31641,-7.91676 3.1477,-1.84842 6.76561,-2.825957 10.40663,-3.086007 7.28205,-0.520099 14.47075,1.753325 21.23188,4.50757 6.76112,2.754246 13.36544,6.034846 20.47373,7.699459 3.55414,0.832307 7.22572,1.250506 10.86464,0.96253 3.63893,-0.287976 7.24889,-1.299181 10.37656,-3.181303 3.19761,-1.924212 5.81021,-4.7002 8.00939,-7.715311 2.19919,-3.015111 4.01732,-6.286306 5.92588,-9.49328 1.90857,-3.206975 3.92814,-6.377793 6.46933,-9.110854 2.5412,-2.733062 5.64756,-5.027851 9.20837,-6.144962 4.89752,-1.53647 10.37857,-0.697433 14.88163,1.766093 4.50305,2.463525 8.06456,6.447374 10.52951,10.949644 4.92992,9.004541 5.54358,19.651967 6.24411,29.893797 0.48512,7.09244 1.06762,14.20608 2.61344,21.14498 1.54583,6.93891 4.09221,13.73609 8.21859,19.52495 4.12639,5.78886 9.9218,10.52792 16.70851,12.6442 3.39335,1.05814 7.00404,1.45113 10.53474,1.04047 3.5307,-0.41067 6.97684,-1.63326 9.9182,-3.62897 z"
       id="path849"
       inkscape:path-effect="#path-effect851"
       inkscape:original-d="m 360.96883,151.14936 c 15.99745,16.90821 15.65777,-20.96625 23.48613,-31.44989 7.82839,-10.48364 25.18842,11.49815 37.78209,17.24671 12.59368,5.74857 -10.8918,27.05402 -16.33821,40.58051 -5.44639,13.52649 6.12719,37.87549 9.19026,56.81272 3.06307,18.93722 17.0193,-2.70504 25.52843,-4.05806 8.50913,-1.35302 -3.40346,22.99597 -5.10571,34.49343 -1.70221,11.49747 -32.99025,12.3826 -49.48589,18.57338 -16.49563,6.19079 -43.93473,15.34811 -65.90261,23.02164 -21.96788,7.67354 -80.69568,-15.34742 -121.04404,-23.02164 -40.34836,-7.67422 2.40918,-73.92901 3.61326,-110.89403 1.20407,-36.96502 1.5398,-55.74327 -7.14797,-35.50795 -10.63353,24.76734 -16.33785,-29.08235 -24.50729,-45.653066 -8.16945,-16.570713 53.78024,-2.028682 80.66985,-1.014511 26.8896,1.014172 19.74232,-21.642597 29.61297,-32.464407 9.87066,-10.821808 21.10385,28.406696 31.65525,42.609534 10.55142,14.20283 31.99599,33.81743 47.99348,50.72563 z"
       sodipodi:nodetypes="sssssssssssssssss" />
    <path
       style="fill:none;stroke:#000000;stroke-width:0.264583px;stroke-linecap:butt;stroke-linejoin:miter;stroke-opacity:1"
       d="m 393.51201,37.31155 -13.86742,19.643009 25.53468,9.773694 z"
       id="path847" />
    <path
       sodipodi:type="star"
       style="opacity:0.662531;fill:none;stroke:#ccaaff;stroke-width:0.513664;stroke-linecap:round;stroke-linejoin:round;paint-order:stroke fill markers"
       id="path853"
       sodipodi:sides="5"
       sodipodi:cx="31.447618"
       sodipodi:cy="34.592381"
       sodipodi:r1="11.687562"
       sodipodi:r2="7.3915997"
       sodipodi:arg1="0.83298127"
       sodipodi:arg2="1.4612998"
       inkscape:flatsided="false"
       inkscape:rounded="0"
       inkscape:randomized="0"
       inkscape:transform-center-x="0.39467434"
       inkscape:transform-center-y="-0.7340222"
       d="m 39.309523,43.240476 -7.054166,-1.300762 -6.603104,2.802191 -0.942759,-7.110869 -4.705513,-5.414 6.47151,-3.093996 3.694936,-6.148227 4.942372,5.198674 6.989109,1.614186 -3.416956,6.306954 z"
       transform="matrix(1.2988421,0,0,1.2904159,0.6700502,0.90026311)" />
    <path
       sodipodi:type="star"
       style="opacity:0.662531;fill:none;stroke:#ccaaff;stroke-width:0.513664;stroke-linecap:round;stroke-linejoin:round;paint-order:stroke fill markers"
       id="path855"
       sodipodi:sides="5"
       sodipodi:cx="40.881908"
       sodipodi:cy="95.129044"
       sodipodi:r1="28.182487"
       sodipodi:r2="17.823536"
       sodipodi:arg1="0.52606642"
       sodipodi:arg2="1.1543849"
       inkscape:flatsided="false"
       inkscape:rounded="0"
       inkscape:randomized="0"
       inkscape:transform-center-x="1.8316912"
       inkscape:transform-center-y="0.88894797"
       d="m 65.253812,109.28047 -17.162619,2.14902 -13.13676,11.25164 -7.347382,-15.65853 -14.760427,-9.016857 12.621687,-11.826529 4.014314,-16.824362 15.148014,8.34934 17.24141,-1.381174 -3.259701,16.986705 z"
       transform="matrix(1.2988421,0,0,1.2904159,0.6700502,0.90026311)" />
    <path
       sodipodi:type="star"
       style="opacity:0.662531;fill:none;stroke:#ccaaff;stroke-width:0.74539123;stroke-linecap:round;stroke-linejoin:round;paint-order:stroke fill markers;stroke-miterlimit:4;stroke-dasharray:none"
       id="path857"
       sodipodi:sides="3"
       sodipodi:cx="101.41857"
       sodipodi:cy="143.87285"
       sodipodi:r1="9.7246399"
       sodipodi:r2="6.1501827"
       sodipodi:arg1="1.3258177"
       sodipodi:arg2="2.3730153"
       inkscape:flatsided="true"
       inkscape:rounded="0"
       inkscape:randomized="0"
       inkscape:transform-center-x="-0.72883737"
       inkscape:transform-center-y="0.20772555"
       d="M 103.77714,153.30714 92.068954,141.19829 108.40962,137.11312 Z"
       transform="matrix(1.2988421,0,0,1.2904159,0.6700502,0.90026311)" />
    <path
       sodipodi:type="star"
       style="opacity:0.662531;fill:none;stroke:#ccaaff;stroke-width:0.729787;stroke-linecap:round;stroke-linejoin:round;paint-order:stroke fill markers"
       id="path859"
       sodipodi:sides="3"
       sodipodi:cx="178.46523"
       sodipodi:cy="32.233807"
       sodipodi:r1="11.819034"
       sodipodi:r2="5.9095168"
       sodipodi:arg1="0.066568164"
       sodipodi:arg2="1.1137657"
       inkscape:flatsided="true"
       inkscape:rounded="0"
       inkscape:randomized="0"
       inkscape:transform-center-x="1.3435766"
       inkscape:transform-center-y="2.1845477"
       d="m 190.25808,33.019997 -18.37014,9.033628 1.36172,-20.425827 z"
       transform="matrix(0.64842279,-0.64373924,0.64025449,0.64491269,94.577942,158.85199)" />
    <path
       style="fill:none;fill-opacity:0.113725;fill-rule:evenodd;stroke:#ccaaff;stroke-width:0.264583;stroke-opacity:1"
       id="path861"
       sodipodi:type="arc"
       sodipodi:cx="158.43576"
       sodipodi:cy="34.886436"
       sodipodi:rx="10.721942"
       sodipodi:ry="10.652384"
       sodipodi:start="3.1858717"
       sodipodi:end="3.0498058"
       sodipodi:open="true"
       sodipodi:arc-type="arc"
       d="m 147.72433,34.414913 a 10.721942,10.652384 0 0 1 10.82146,-10.180299 10.721942,10.652384 0 0 1 10.60889,10.398811 10.721942,10.652384 0 0 1 -10.09985,10.887624 10.721942,10.652384 0 0 1 -11.29588,-9.658236" />
    <path
       style="fill:url(#linearGradient947);fill-opacity:1;stroke:none;stroke-width:0.264583px;stroke-linecap:butt;stroke-linejoin:miter;stroke-opacity:0.392157;filter:url(#filter4919)"
       d="m 139.00329,273.12669 c 2.07398,-3.58281 5.41678,-6.21157 8.3686,-9.11409 1.47591,-1.45127 2.87624,-2.99908 3.96356,-4.76039 1.08732,-1.76131 1.85491,-3.75258 1.98342,-5.81849 0.13852,-2.22693 -0.46641,-4.44192 -1.32715,-6.50044 -0.86075,-2.05853 -1.97704,-3.99931 -2.9323,-6.01572 -0.95526,-2.01641 -1.75776,-4.14533 -1.92943,-6.36996 -0.17166,-2.22462 0.34637,-4.57085 1.78408,-6.27714 1.30968,-1.55434 3.29296,-2.45962 5.31367,-2.67864 2.02071,-0.21902 4.07434,0.20691 5.9551,0.97761 3.76152,1.54141 6.81621,4.37843 10.2046,6.62428 2.37298,1.57283 4.94194,2.8757 7.09528,4.73794 1.07666,0.93113 2.0446,2.00306 2.75447,3.23687 0.70986,1.23381 1.15481,2.63635 1.16223,4.05978 0.007,1.29239 -0.34548,2.56998 -0.89569,3.73942 -0.55022,1.16943 -1.2946,2.23785 -2.09878,3.24959 -1.60837,2.02347 -3.48425,3.86606 -4.71392,6.13964 -1.9787,3.65848 -2.07341,8.0269 -1.79271,12.17671 0.2807,4.14981 0.88641,8.34758 0.14092,12.43952 -0.911,5.00043 -3.92516,9.59899 -8.19343,12.35873 -4.26826,2.75974 -9.73701,3.61759 -14.62283,2.21652 -4.88582,-1.40107 -9.09132,-5.05996 -11.07857,-9.73811 -1.98725,-4.67815 -1.6875,-10.28474 0.85888,-14.68363 z"
       id="path867"
       inkscape:path-effect="#path-effect869"
       inkscape:original-d="m 139.00329,273.12669 c -11.01217,-3.28235 9.5439,-13.12847 14.31558,-19.69297 4.77167,-6.56452 -2.93635,-16.77532 -4.4048,-25.16326 -1.46845,-8.38793 14.31577,3.28235 21.47337,4.92325 7.1576,1.6409 7.34151,8.02325 11.01198,12.03459 3.67048,4.01136 -5.13874,8.75262 -7.70839,13.12865 -2.56964,4.37603 -1.10101,16.411 -1.65179,24.61623 -0.55079,8.20522 -22.02378,-6.56415 -33.03595,-9.84649 z" />
    <path
       sodipodi:type="star"
       style="opacity:0.662531;fill:none;stroke:#ccaaff;stroke-width:1.96903;stroke-linecap:round;stroke-linejoin:round;paint-order:stroke fill markers"
       id="path4801"
       sodipodi:sides="5"
       sodipodi:cx="40.881908"
       sodipodi:cy="95.129044"
       sodipodi:r1="28.182487"
       sodipodi:r2="17.823536"
       sodipodi:arg1="0.52606642"
       sodipodi:arg2="1.1543849"
       inkscape:flatsided="false"
       inkscape:rounded="0"
       inkscape:randomized="0"
       inkscape:transform-center-x="0.47777043"
       inkscape:transform-center-y="0.23193586"
       d="m 65.253812,109.28047 -17.162619,2.14902 -13.13676,11.25164 -7.347382,-15.65853 -14.760427,-9.016857 12.621687,-11.826529 4.014314,-16.824362 15.148014,8.34934 17.24141,-1.381174 -3.259701,16.986705 z"
       transform="matrix(0.33878126,0,0,0.33668235,399.02206,59.185456)" />
  </g>
</svg>
