<?xml version="1.0" encoding="UTF-8" standalone="no"?>
<svg
   xmlns:dc="http://purl.org/dc/elements/1.1/"
   xmlns:cc="http://creativecommons.org/ns#"
   xmlns:rdf="http://www.w3.org/1999/02/22-rdf-syntax-ns#"
   xmlns:svg="http://www.w3.org/2000/svg"
   xmlns="http://www.w3.org/2000/svg"
   xmlns:sodipodi="http://sodipodi.sourceforge.net/DTD/sodipodi-0.dtd"
   xmlns:inkscape="http://www.inkscape.org/namespaces/inkscape"
   width="241mm"
   height="54mm"
   viewBox="0 0 241 54"
   version="1.1"
   id="svg4929"
   inkscape:version="1.0.1 (3bc2e813f5, 2020-09-07)"
   sodipodi:docname="logo.svg">
  <defs
     id="defs4923">
    <rect
       x="18.75334"
       y="29.627819"
       width="86.016319"
       height="45.956001"
       id="rect5577" />
    <inkscape:path-effect
       effect="spiro"
       id="path-effect5561"
       is_visible="true"
       lpeversion="1" />
    <inkscape:path-effect
       effect="spiro"
       id="path-effect5557"
       is_visible="true"
       lpeversion="1" />
    <inkscape:path-effect
       effect="spiro"
       id="path-effect5553"
       is_visible="true"
       lpeversion="1" />
    <inkscape:path-effect
       effect="spiro"
       id="path-effect5549"
       is_visible="true"
       lpeversion="1" />
    <inkscape:path-effect
       effect="spiro"
       id="path-effect5545"
       is_visible="true"
       lpeversion="1" />
    <inkscape:path-effect
       effect="spiro"
       id="path-effect5541"
       is_visible="true"
       lpeversion="1" />
    <inkscape:path-effect
       effect="spiro"
       id="path-effect5537"
       is_visible="true"
       lpeversion="1" />
    <inkscape:path-effect
       effect="spiro"
       id="path-effect5533"
       is_visible="true"
       lpeversion="1" />
    <inkscape:path-effect
       effect="spiro"
       id="path-effect5529"
       is_visible="true"
       lpeversion="1" />
    <inkscape:path-effect
       effect="spiro"
       id="path-effect5525"
       is_visible="true"
       lpeversion="1" />
    <inkscape:path-effect
       effect="spiro"
       id="path-effect5521"
       is_visible="true"
       lpeversion="1" />
    <inkscape:path-effect
       effect="spiro"
       id="path-effect5515"
       is_visible="true"
       lpeversion="1" />
    <inkscape:path-effect
       effect="spiro"
       id="path-effect5504"
       is_visible="true"
       lpeversion="1" />
    <rect
       x="34.131248"
       y="26.19375"
       width="39.158333"
       height="33.602081"
       id="rect5494" />
    <clipPath
       clipPathUnits="userSpaceOnUse"
       id="clipPath6122">
      <text
         xml:space="preserve"
         id="text6126"
         style="font-style:normal;font-variant:normal;font-weight:normal;font-stretch:normal;font-size:13.9791px;line-height:1.25;font-family:'Abril Fatface';-inkscape-font-specification:'Abril Fatface, Normal';font-variant-ligatures:normal;font-variant-caps:normal;font-variant-numeric:normal;font-variant-east-asian:normal;white-space:pre;shape-inside:url(#rect5577);fill:#000000;fill-opacity:1;stroke:none;stroke-width:0.620357;"
         transform="matrix(1.6272048,0,0,1.5969026,-34.211392,-35.054373)"><tspan
           x="18.753906"
           y="42.337934"><tspan
             style="font-style:normal;font-variant:normal;font-weight:normal;font-stretch:normal;font-size:13.9791px;font-family:'Abril Fatface';-inkscape-font-specification:'Abril Fatface, Normal';font-variant-ligatures:normal;font-variant-caps:normal;font-variant-numeric:normal;font-variant-east-asian:normal;stroke-width:0.614551">EXTRAGAM</tspan></tspan></text>
    </clipPath>
  </defs>
  <sodipodi:namedview
     id="base"
     pagecolor="#ffffff"
     bordercolor="#666666"
     borderopacity="1.0"
     inkscape:pageopacity="0.0"
     inkscape:pageshadow="2"
     inkscape:zoom="0.5"
     inkscape:cx="190.15586"
     inkscape:cy="162.32967"
     inkscape:document-units="mm"
     inkscape:current-layer="layer1"
     inkscape:document-rotation="0"
     showgrid="false"
     inkscape:window-width="1267"
     inkscape:window-height="729"
     inkscape:window-x="83"
     inkscape:window-y="0"
     inkscape:window-maximized="0"
     width="230mm" />
  <metadata
     id="metadata4926">
    <rdf:RDF>
      <cc:Work
         rdf:about="">
        <dc:format>image/svg+xml</dc:format>
        <dc:type
           rdf:resource="http://purl.org/dc/dcmitype/StillImage" />
        <dc:title></dc:title>
      </cc:Work>
    </rdf:RDF>
  </metadata>
  <g
     inkscape:label="Layer 1"
     inkscape:groupmode="layer"
     id="layer1">
    <g
       id="g6120"
       clip-path="url(#clipPath6122)"
       style="stroke-width:0.528837"
       transform="matrix(1.9157108,0,0,1.8664907,6.4968817,-19.717748)">
      <rect
         style="opacity:0.880645;fill:#5500d4;fill-opacity:1;stroke:#ffffff;stroke-width:0.581721;stroke-linecap:round;stroke-linejoin:round;stroke-miterlimit:4;stroke-dasharray:none;stroke-opacity:1;paint-order:stroke fill markers"
         id="rect5581"
         width="140.30035"
         height="83.338402"
         x="-15.227514"
         y="-7.1211295" />
      <g
         id="g5573"
         transform="matrix(1.4998273,0,0,1.4998273,-35.150162,-44.16042)"
         style="fill:#ff00d4;fill-opacity:1;stroke:#000000;stroke-width:0.387858;stroke-miterlimit:4;stroke-dasharray:none;stroke-opacity:1">
        <path
           style="fill:#ff00d4;fill-opacity:1;stroke:#000000;stroke-width:0.387858;stroke-linecap:butt;stroke-linejoin:miter;stroke-miterlimit:4;stroke-dasharray:none;stroke-opacity:1"
           d="m 19.314583,32.808333 c 0.141959,-0.458072 0.408241,-0.875314 0.755253,-1.20632 0.347012,-0.331007 0.773406,-0.576139 1.230335,-0.721735 0.913858,-0.29119 1.932011,-0.175577 2.802731,0.226637 0.870719,0.402213 1.599381,1.075612 2.154695,1.857632 0.555314,0.782019 0.945011,1.671107 1.244438,2.5823 0.718414,2.186224 0.930524,4.504691 1.496708,6.735191 0.260639,1.026794 0.60306,2.048426 1.191102,2.929587 0.588043,0.881161 1.447019,1.616829 2.472182,1.883808 0.512582,0.13349 1.059231,0.146345 1.571864,0.01305 0.512633,-0.133293 0.989224,-0.415396 1.334625,-0.816965 0.345401,-0.401569 0.554597,-0.923194 0.558497,-1.452859 0.0039,-0.529664 -0.202962,-1.062235 -0.580166,-1.434091 -0.239013,-0.235624 -0.536633,-0.402614 -0.839397,-0.54746 -0.302763,-0.144846 -0.615268,-0.270844 -0.905652,-0.43914 -0.290383,-0.168296 -0.561805,-0.38389 -0.73879,-0.66906 -0.08849,-0.142585 -0.152135,-0.301487 -0.178251,-0.467257 -0.02612,-0.165769 -0.01402,-0.338437 0.04285,-0.496323 0.08518,-0.236497 0.269177,-0.431457 0.490553,-0.55053 0.221376,-0.119073 0.477767,-0.165284 0.728895,-0.154306 0.502255,0.02195 0.967229,0.261564 1.399795,0.517746 0.618602,0.366359 1.213072,0.780154 1.729538,1.280305 0.516466,0.500151 0.954349,1.089885 1.227376,1.754974 0.273027,0.66509 0.375532,1.408267 0.232963,2.112939 -0.142569,0.704671 -0.540468,1.365294 -1.131903,1.774063 -0.600113,0.414766 -1.357175,0.550737 -2.086147,0.523048 -0.728971,-0.02769 -1.442438,-0.20687 -2.152562,-0.373875 -0.710123,-0.167006 -1.431529,-0.323591 -2.160786,-0.304835 -0.729256,0.01876 -1.476923,0.229297 -2.019493,0.716928 -0.573761,0.515664 -0.858895,1.276463 -1.348348,1.872739 -0.244727,0.298139 -0.549503,0.559194 -0.913897,0.685664 -0.182197,0.06324 -0.377506,0.09154 -0.56946,0.07288 -0.191953,-0.01866 -0.380292,-0.08518 -0.535892,-0.199126 -0.256154,-0.187579 -0.409761,-0.496307 -0.443249,-0.812028 -0.03349,-0.315721 0.04536,-0.636639 0.186304,-0.92113 0.281896,-0.56898 0.790003,-0.984885 1.240688,-1.432197 0.225342,-0.223656 0.440524,-0.460675 0.607189,-0.730904 0.166665,-0.270229 0.283722,-0.576513 0.299195,-0.893627 0.01547,-0.317115 -0.07732,-0.645303 -0.287273,-0.883464 -0.104976,-0.119081 -0.237836,-0.214221 -0.386274,-0.270492 -0.148437,-0.05627 -0.312349,-0.07304 -0.468226,-0.043 -0.16883,0.03254 -0.323726,0.118198 -0.459385,0.223835 -0.13566,0.105636 -0.254124,0.231334 -0.373244,0.355322 -0.11912,0.123987 -0.240274,0.247485 -0.380027,0.347642 -0.139753,0.100158 -0.300259,0.176711 -0.471141,0.195732 -0.180567,0.0201 -0.366461,-0.02619 -0.521137,-0.1215 -0.154677,-0.09531 -0.278219,-0.238152 -0.358082,-0.40134 -0.07986,-0.163188 -0.116765,-0.346071 -0.115192,-0.527747 0.0016,-0.181676 0.04101,-0.362132 0.107181,-0.531335 0.132346,-0.338406 0.367948,-0.627215 0.629147,-0.879821 0.261198,-0.252605 0.550513,-0.4743 0.819349,-0.718762 0.496061,-0.451087 0.927162,-0.990035 1.164623,-1.617066 0.237461,-0.627032 0.26624,-1.349435 -0.01227,-1.959345 -0.139254,-0.304954 -0.353401,-0.577117 -0.624797,-0.773925 -0.271395,-0.196808 -0.600266,-0.316457 -0.935333,-0.327356 -0.335068,-0.0109 -0.674774,0.08907 -0.943216,0.289883 -0.268443,0.200818 -0.46191,0.502932 -0.519897,0.833124 -0.0673,0.383216 0.04391,0.771947 0.09122,1.15814 0.02365,0.193097 0.03114,0.390356 -0.0075,0.581014 -0.03867,0.190658 -0.126526,0.375387 -0.270783,0.505909 -0.109711,0.09927 -0.249074,0.164078 -0.394726,0.190067 -0.145653,0.02599 -0.297229,0.01376 -0.438766,-0.02934 -0.283073,-0.0862 -0.519099,-0.292642 -0.683975,-0.538358 -0.164876,-0.245716 -0.264365,-0.529532 -0.338613,-0.815971 -0.07425,-0.28644 -0.124938,-0.578652 -0.201895,-0.864376 -0.293317,-1.089016 -0.952159,-2.036117 -1.463667,-3.041279 -0.255754,-0.502581 -0.477288,-1.027128 -0.593442,-1.578949 -0.116154,-0.55182 -0.123343,-1.134331 0.04358,-1.672971 z"
           id="path5519"
           inkscape:path-effect="#path-effect5521"
           inkscape:original-d="m 19.314583,32.808333 c -0.67144,-2.097995 5.458565,1.82594 8.187452,2.738514 2.728886,0.912572 0.998069,4.490392 1.496708,6.735191 0.498639,2.244799 4.365667,0.74862 6.548104,1.122532 2.182437,0.373914 -1.745895,-1.745896 -2.619243,-2.61924 -0.873344,-0.873345 1.746428,-0.124463 2.619243,-0.18709 0.872816,-0.06263 1.372248,4.615119 2.057974,6.922281 0.685729,2.307164 -5.612394,0.374443 -8.418988,0.561266 -2.806596,0.186825 -2.244799,1.6217 -3.367597,2.432153 -1.122797,0.810453 0.499168,-3.990959 0.748354,-5.986838 0.249187,-1.995877 -1.122267,0.74862 -1.683797,1.122531 -0.561531,0.373915 0.374441,-2.120071 0.561266,-3.180505 0.186824,-1.060435 -1.246994,-2.369527 -1.870887,-3.554685 -0.623893,-1.185159 -0.124461,1.496972 -0.187089,2.245063 -0.06263,0.748091 -1.371719,-1.371719 -2.057975,-2.057974 -0.686256,-0.686258 -1.342086,-4.195201 -2.013525,-6.293199 z" />
        <path
           style="fill:#ff00d4;fill-opacity:1;stroke:#000000;stroke-width:0.387858;stroke-linecap:butt;stroke-linejoin:miter;stroke-miterlimit:4;stroke-dasharray:none;stroke-opacity:1"
           d="m 40.036974,43.591659 c -0.235683,0.302533 -0.36176,0.679778 -0.409792,1.060258 -0.04803,0.38048 -0.02192,0.766458 0.02152,1.14749 0.04343,0.381033 0.104146,0.760503 0.125386,1.143414 0.02124,0.382912 0.002,0.772577 -0.111289,1.138966 -0.201771,0.652624 -0.697599,1.192214 -1.294581,1.524241 -0.596982,0.332027 -1.28833,0.468826 -1.971381,0.477279 -1.366101,0.01691 -2.6848,-0.456063 -4.030497,-0.691899 -0.554455,-0.09717 -1.12821,-0.153618 -1.677098,-0.02878 -0.274443,0.06242 -0.540064,0.170612 -0.770475,0.332248 -0.230412,0.161636 -0.424796,0.377882 -0.545847,0.631973 -0.118685,0.249124 -0.164756,0.529758 -0.151308,0.805381 0.01345,0.275623 0.08502,0.546534 0.19149,0.801117 0.212944,0.509166 0.560003,0.948519 0.895263,1.386921 0.647724,0.846994 1.272843,1.727266 1.666479,2.718223 0.393637,0.990957 0.540786,2.112855 0.215522,3.12831 -0.162632,0.507728 -0.442716,0.980739 -0.82851,1.348705 -0.385794,0.367966 -0.878689,0.627746 -1.405072,0.712345 -0.526383,0.0846 -1.084218,-0.01086 -1.539737,-0.287874 -0.45552,-0.277017 -0.801089,-0.73787 -0.915011,-1.258694 -0.0877,-0.400934 -0.04061,-0.81704 -0.0185,-1.226857 0.02211,-0.409817 0.01492,-0.838194 -0.16859,-1.205294 -0.105891,-0.211826 -0.268013,-0.394482 -0.462738,-0.529261 -0.194724,-0.134779 -0.421467,-0.221887 -0.655584,-0.257556 -0.468234,-0.07134 -0.95713,0.06682 -1.344081,0.339955 -0.386952,0.273131 -0.674833,0.673791 -0.850738,1.113551 -0.175906,0.439761 -0.24388,0.917654 -0.241543,1.391285 0.0056,1.138674 0.410344,2.246166 0.978872,3.232769 0.568528,0.986603 1.298349,1.868818 2.014546,2.75407 0.857212,1.059554 1.704356,2.135494 2.70498,3.060814 1.000624,0.92532 2.172378,1.702125 3.489769,2.051336 0.658695,0.174605 1.348921,0.239687 2.026013,0.16279 0.677091,-0.0769 1.340598,-0.297718 1.913929,-0.666036 0.573331,-0.368318 1.054104,-0.885994 1.354241,-1.497782 0.300138,-0.611787 0.415173,-1.317356 0.297655,-1.988591 -0.126565,-0.722905 -0.509656,-1.375329 -0.941612,-1.968645 -0.431956,-0.593317 -0.920381,-1.147135 -1.303451,-1.773129 -0.448368,-0.732701 -0.747826,-1.57315 -0.748356,-2.432153 -5.03e-4,-0.815752 0.271032,-1.621546 0.719462,-2.302988 0.448429,-0.681442 1.068505,-1.241464 1.763758,-1.668166 1.390507,-0.853402 3.041653,-1.169012 4.663865,-1.342889 1.622213,-0.173877 3.266717,-0.223423 4.851315,-0.611825 1.584597,-0.388403 3.143856,-1.164852 4.091225,-2.493121 0.311002,-0.436043 0.550734,-0.926241 0.674415,-1.447355 0.12368,-0.521113 0.128922,-1.073642 -0.0141,-1.589781 -0.143022,-0.51614 -0.437674,-0.993734 -0.854027,-1.330641 -0.416353,-0.336906 -0.955356,-0.526861 -1.490086,-0.496529 -0.380028,0.02156 -0.749452,0.151331 -1.077392,0.344571 -0.32794,0.19324 -0.61613,0.448595 -0.873189,0.72932 -0.514119,0.561451 -0.906103,1.222876 -1.387385,1.812717 -0.240641,0.294921 -0.504907,0.572968 -0.808724,0.802274 -0.303817,0.229307 -0.64887,0.409258 -1.019681,0.4952 -0.37081,0.08594 -0.768314,0.07455 -1.123199,-0.06309 -0.354886,-0.137632 -0.663131,-0.406498 -0.8198,-0.7534 -0.09509,-0.21055 -0.133415,-0.444298 -0.12811,-0.675263 0.0053,-0.230966 0.05326,-0.459546 0.124425,-0.679339 0.142329,-0.439586 0.375515,-0.843203 0.564951,-1.264638 0.266935,-0.593845 0.448599,-1.232982 0.464694,-1.883865 0.01609,-0.650882 -0.140582,-1.31482 -0.503657,-1.855267 -0.363075,-0.540447 -0.942159,-0.946286 -1.586463,-1.039985 -0.322151,-0.04685 -0.65636,-0.01598 -0.961607,0.09716 -0.305247,0.113142 -0.5805,0.309194 -0.780563,0.566004 z"
           id="path5523"
           inkscape:path-effect="#path-effect5525"
           inkscape:original-d="m 40.036974,43.591659 c -1.122796,-1.372248 -0.249187,2.993684 -0.374176,4.490128 -0.124992,1.496446 -4.864042,0.873344 -7.296459,1.309621 -2.432416,0.436277 -1.995348,0.623893 -2.99342,0.935442 -0.998069,0.311552 0.623896,1.995879 0.935445,2.993419 0.31155,0.997543 -1.870622,4.240943 -2.806329,6.361015 -0.93571,2.120074 -0.124463,-1.621171 -0.18709,-2.432151 -0.06263,-0.810982 -2.369525,1.372246 -3.554684,2.057974 -1.18516,0.685726 1.995877,3.991489 2.993418,5.986839 0.997543,1.995347 7.857988,0.748617 11.786587,1.122531 3.928597,0.373912 -1.496446,-2.49425 -2.245063,-3.741774 -0.74862,-1.247521 -0.498639,-1.621171 -0.748356,-2.432153 -0.249716,-0.810983 10.726682,-5.612395 16.089625,-8.418989 5.362945,-2.806594 -1.122268,-3.242606 -1.683798,-4.864306 -0.561531,-1.6217 -4.739315,2.245328 -7.10937,3.367595 -2.370053,1.122268 0.374444,-1.745895 0.561266,-2.61924 0.186825,-0.873344 -2.244799,-2.743702 -3.367596,-4.115951 z" />
        <path
           style="fill:#ff00d4;fill-opacity:1;stroke:#000000;stroke-width:0.387858;stroke-linecap:butt;stroke-linejoin:miter;stroke-miterlimit:4;stroke-dasharray:none;stroke-opacity:1"
           d="m 53.694448,49.391408 c -0.811345,0.802179 -1.194754,1.931721 -1.511441,3.027841 -0.316688,1.09612 -0.60832,2.234826 -1.294891,3.146084 -0.808793,1.073477 -2.079641,1.706679 -3.368198,2.088934 -1.288557,0.382256 -2.631733,0.5502 -3.928259,0.904485 -0.924993,0.252761 -1.837546,0.607612 -2.598579,1.190988 -0.761034,0.583377 -1.361837,1.417489 -1.517372,2.363697 -0.09005,0.547807 -0.02955,1.112416 0.110566,1.649602 0.140118,0.537186 0.358169,1.050579 0.586686,1.556525 0.457035,1.011892 0.969407,2.044702 0.986546,3.154888 0.01142,0.739854 -0.199817,1.46353 -0.28284,2.1988 -0.04151,0.367635 -0.05069,0.741848 0.01589,1.105779 0.06658,0.363932 0.212171,0.718499 0.454039,0.998461 0.217305,0.251529 0.507864,0.436503 0.82353,0.540634 0.315667,0.10413 0.655582,0.128637 0.98513,0.0852 0.659096,-0.08687 1.261804,-0.440489 1.743433,-0.898733 0.963257,-0.916487 1.463479,-2.208066 2.247655,-3.28179 0.829509,-1.135796 1.978145,-2.019391 3.245173,-2.629929 1.267028,-0.610538 2.650848,-0.955684 4.047366,-1.122583 2.793035,-0.333797 5.614826,0.03308 8.422909,0.197827 1.224429,0.07184 2.460451,0.104584 3.670478,-0.09597 1.210027,-0.200554 2.402273,-0.648116 3.334789,-1.444859 0.466258,-0.398372 0.862959,-0.881371 1.141998,-1.427478 0.279039,-0.546108 0.438657,-1.155819 0.43928,-1.769086 6.23e-4,-0.613267 -0.160243,-1.229032 -0.480963,-1.751751 -0.32072,-0.52272 -0.802973,-0.948827 -1.370391,-1.181492 -0.502539,-0.206062 -1.060465,-0.258417 -1.600233,-0.197938 -0.539767,0.06048 -1.062942,0.230563 -1.557859,0.454314 -0.989833,0.447502 -1.869012,1.105645 -2.828743,1.614511 -2.258017,1.19724 -4.858772,1.522596 -7.384564,1.912982 -2.525791,0.390387 -5.129938,0.902706 -7.208352,2.390059 -0.542618,0.388308 -1.049826,0.843225 -1.66501,1.101615 -0.307592,0.129195 -0.641068,0.206404 -0.974243,0.189123 -0.333175,-0.01728 -0.666033,-0.133701 -0.915432,-0.355296 -0.165634,-0.147169 -0.291373,-0.337625 -0.368031,-0.545512 -0.07666,-0.207887 -0.10469,-0.432771 -0.08823,-0.653729 0.03293,-0.441915 0.243259,-0.85976 0.541864,-1.187187 0.298605,-0.327427 0.68144,-0.56955 1.086047,-0.750291 0.404606,-0.180742 0.832543,-0.302952 1.260498,-0.417966 3.884631,-1.044001 8.015513,-1.587381 11.412407,-3.741772 2.304893,-1.461818 4.145907,-3.618639 5.322095,-6.08157 1.176188,-2.462931 1.695614,-5.222381 1.600186,-7.95008 -0.06124,-1.750381 -0.378422,-3.512915 -1.137916,-5.091127 -0.759493,-1.578212 -1.987375,-2.964473 -3.566561,-3.721939 -0.789593,-0.378733 -1.659194,-0.596471 -2.53486,-0.606691 -0.875666,-0.01022 -1.756354,0.189541 -2.529337,0.601115 -0.772983,0.411574 -1.434981,1.03679 -1.866474,1.798833 -0.431492,0.762043 -0.62737,1.659885 -0.525615,2.529679 0.07272,0.621621 0.305944,1.241111 0.748355,1.6838 0.507843,0.508162 1.243974,0.736094 1.961903,0.762774 0.717929,0.02668 1.429014,-0.128517 2.128756,-0.291289 0.699743,-0.162771 1.404764,-0.334971 2.123142,-0.343145 0.718378,-0.0082 1.46341,0.163448 2.018101,0.620013 0.45112,0.371316 0.747526,0.910292 0.883165,1.478612 0.13564,0.568319 0.118191,1.165271 0.01481,1.740335 -0.206756,1.150127 -0.745205,2.211108 -1.085068,3.329157 -0.226834,0.746215 -0.36466,1.516318 -0.561579,2.27098 -0.196919,0.754661 -0.458424,1.504599 -0.904201,2.144578 -0.445778,0.639979 -1.095326,1.165107 -1.857097,1.332426 -0.380886,0.08366 -0.783933,0.07543 -1.155987,-0.0414 -0.372053,-0.116829 -0.711387,-0.344227 -0.946708,-0.655188 -0.24696,-0.326341 -0.372442,-0.730351 -0.433286,-1.135055 -0.06085,-0.404705 -0.06141,-0.81566 -0.08401,-1.224288 -0.0226,-0.408628 -0.06861,-0.821467 -0.215027,-1.203633 -0.146413,-0.382166 -0.403231,-0.734652 -0.764385,-0.927151 -0.364668,-0.194372 -0.809139,-0.208879 -1.205015,-0.09037 -0.395876,0.118513 -0.746193,0.361097 -1.040049,0.651633 z"
           id="path5527"
           inkscape:path-effect="#path-effect5529"
           inkscape:original-d="m 53.694448,49.391408 c -0.74862,0.186825 -1.870622,4.116215 -2.806332,6.173925 -0.935707,2.057712 -4.864039,1.995879 -7.296457,2.993419 -2.432417,0.997543 -2.743702,2.370056 -4.115951,3.554685 -1.372248,1.18463 1.122797,4.240943 1.683798,6.361015 0.561002,2.120074 0.124992,2.868959 0.18709,4.30304 0.0621,1.434081 3.866763,-2.369526 5.799748,-3.554685 1.932985,-1.185159 10.47723,-2.369526 15.715448,-3.554685 5.238219,-1.185159 4.490392,-5.113494 6.735191,-7.670636 2.244799,-2.557142 -3.990959,1.247524 -5.986835,1.870887 -1.995879,0.623364 -9.728348,2.868957 -14.592916,4.303041 -4.864571,1.434081 -2.369527,0.623893 -3.554685,0.935442 -1.185162,0.31155 1.6217,-2.369526 2.432153,-3.554685 0.810453,-1.185159 7.608535,-2.494251 11.412407,-3.741772 3.803873,-1.247523 4.61512,-9.354169 6.922281,-14.03165 2.307161,-4.677481 -8.10691,-2.993155 -12.160763,-4.49013 -4.053853,-1.496973 0.499168,1.122796 0.748355,1.6838 0.249187,0.561002 5.488199,0.499166 8.231902,0.748353 2.7437,0.249187 -0.124463,4.365667 -0.18709,6.548104 -0.06263,2.182437 -3.616782,3.36786 -5.425572,5.051393 -1.808787,1.683533 -0.99754,-2.993154 -1.496708,-4.490127 -0.499168,-1.496973 -1.496446,0.374441 -2.245064,0.561266 z" />
        <path
           style="fill:#ff00d4;fill-opacity:1;stroke:#000000;stroke-width:0.387858;stroke-linecap:butt;stroke-linejoin:miter;stroke-miterlimit:4;stroke-dasharray:none;stroke-opacity:1"
           d="m 51.636472,37.417734 c 0.186437,0.03983 0.35935,0.134861 0.500192,0.263349 0.140841,0.128489 0.250177,0.289667 0.327341,0.463998 0.154328,0.348662 0.179351,0.741712 0.15318,1.122103 -0.02617,0.380391 -0.100943,0.75584 -0.137448,1.135379 -0.0365,0.379538 -0.03322,0.771043 0.09218,1.131122 0.124019,0.356114 0.364793,0.666509 0.663242,0.897 0.298449,0.23049 0.652782,0.383226 1.020019,0.46887 0.734474,0.171286 1.503497,0.07819 2.2456,-0.05625 0.562273,-0.101862 1.122422,-0.227268 1.692646,-0.264289 0.570225,-0.03702 1.158887,0.01892 1.674949,0.264289 0.371677,0.17672 0.695705,0.448166 0.94835,0.773041 0.252644,0.324876 0.434765,0.702283 0.548359,1.097846 0.314195,1.094103 0.101142,2.266367 -0.187087,3.367596 -0.120267,0.459501 -0.257321,0.924322 -0.523995,1.317375 -0.133336,0.196527 -0.298774,0.373037 -0.495939,0.505427 -0.197165,0.13239 -0.426888,0.219562 -0.663864,0.235174 -0.252329,0.01662 -0.507077,-0.04849 -0.729172,-0.1694 -0.222096,-0.120913 -0.412296,-0.29609 -0.565297,-0.497427 -0.306004,-0.402675 -0.460781,-0.898794 -0.576418,-1.391149 -0.09429,-0.401463 -0.166741,-0.809255 -0.299136,-1.199812 -0.132395,-0.390557 -0.330339,-0.768764 -0.636309,-1.045252 -0.27425,-0.247824 -0.621567,-0.401701 -0.976253,-0.505756 -0.354685,-0.104056 -0.720986,-0.161979 -1.081721,-0.242599 -0.94531,-0.211264 -1.852262,-0.578358 -2.804243,-0.757177 -0.47599,-0.08941 -0.963954,-0.131046 -1.445567,-0.07996 -0.481613,0.05108 -0.9577,0.197604 -1.362849,0.462962 -0.394696,0.258511 -0.711685,0.621118 -1.100546,0.888326 -0.194431,0.133604 -0.408486,0.243393 -0.638886,0.29408 -0.2304,0.05069 -0.478621,0.03919 -0.692722,-0.05987 -0.137042,-0.06341 -0.257168,-0.161138 -0.352761,-0.278028 -0.09559,-0.11689 -0.167013,-0.25264 -0.216076,-0.395447 -0.09813,-0.285615 -0.106682,-0.594848 -0.08071,-0.895731 0.02597,-0.300882 0.08529,-0.597905 0.119552,-0.897957 0.03426,-0.300052 0.04291,-0.607683 -0.03127,-0.900432 -0.08274,-0.326519 -0.265833,-0.621068 -0.489026,-0.873349 -0.223192,-0.252281 -0.486395,-0.465657 -0.752542,-0.672119 -0.266147,-0.206462 -0.537318,-0.407911 -0.780904,-0.640561 -0.243587,-0.23265 -0.460558,-0.499322 -0.596771,-0.807391 -0.196544,-0.44452 -0.211629,-0.966526 -0.03933,-1.420995 0.172296,-0.454469 0.530312,-0.835712 0.973835,-1.034498 0.443522,-0.198785 0.967122,-0.212161 1.419538,-0.03455 0.452417,0.177615 0.827495,0.544323 1.013558,0.993331 0.16046,0.387224 0.181224,0.815943 0.273787,1.224749 0.04628,0.204403 0.111621,0.406452 0.218037,0.587001 0.106415,0.18055 0.256289,0.339344 0.443618,0.433314 0.197472,0.09906 0.42911,0.121388 0.646091,0.07983 0.216981,-0.04156 0.41957,-0.144563 0.593338,-0.280989 0.347538,-0.272851 0.575095,-0.667413 0.78146,-1.05811 0.206365,-0.390697 0.405302,-0.795025 0.715409,-1.10977 0.155054,-0.157372 0.337479,-0.29032 0.542638,-0.372281 0.205158,-0.08196 0.433878,-0.111171 0.649926,-0.06501 z"
           id="path5531"
           inkscape:path-effect="#path-effect5533"
           inkscape:original-d="m 51.636472,37.417734 c 1.309356,-0.935709 0.623892,2.744232 0.935445,4.115951 0.311549,1.371719 2.619504,0.873345 3.928861,1.309619 1.309357,0.436277 2.245328,2.65e-4 3.367595,0 1.122268,-2.65e-4 0.998072,1.247524 1.496709,1.870887 0.498639,0.623364 -0.12446,2.245328 -0.187087,3.367596 -0.06263,1.122267 -1.122268,1.372248 -1.683798,2.057976 -0.56153,0.685726 -1.246994,-1.371719 -1.870887,-2.057976 -0.623893,-0.686255 -0.623364,-1.496444 -0.935445,-2.245064 -0.312079,-0.74862 -1.371717,-0.498639 -2.057974,-0.748355 -0.686255,-0.249714 -3.74151,-0.249185 -5.612659,-0.374177 -1.871152,-0.124989 -1.621171,0.74862 -2.432154,1.122532 -0.810982,0.373912 -0.373914,-2.244799 -0.561265,-3.367595 -0.187355,-1.122797 -1.745899,-1.995348 -2.619243,-2.99342 -0.873345,-0.998071 2.245328,-0.997542 3.367598,-1.496708 1.122267,-0.499168 0.623893,1.496973 0.935442,2.245064 0.31155,0.748091 2.619505,-1.870623 3.928862,-2.80633 z" />
        <path
           style="fill:#ff00d4;fill-opacity:1;stroke:#000000;stroke-width:0.387858;stroke-linecap:butt;stroke-linejoin:miter;stroke-miterlimit:4;stroke-dasharray:none;stroke-opacity:1"
           d="m 23.947349,54.442801 c 0.136355,0.32719 0.137512,0.701038 0.04517,1.043264 -0.09234,0.342226 -0.273482,0.655285 -0.489492,0.936328 -0.432021,0.562087 -1.003862,1.005966 -1.426564,1.575093 -0.49701,0.669176 -0.767538,1.492266 -0.832809,2.323262 -0.06527,0.830997 0.06831,1.670083 0.322644,2.46389 0.508666,1.587616 1.480069,2.977518 2.381051,4.380192 0.812514,1.264946 1.590574,2.576507 2.679146,3.613463 0.544287,0.518477 1.164919,0.963706 1.855363,1.26095 0.690444,0.297244 1.453104,0.442765 2.200683,0.36407 1.15745,-0.121841 2.199698,-0.761303 3.342174,-0.983306 0.571238,-0.111001 1.178762,-0.11228 1.718269,0.105818 0.269753,0.109049 0.519019,0.272563 0.716,0.486706 0.19698,0.214143 0.340405,0.479653 0.397484,0.764961 0.07592,0.379458 -0.0042,0.781521 -0.187089,1.122532 -0.181057,0.337524 -0.458876,0.618265 -0.779093,0.82842 -0.320217,0.210156 -0.682072,0.351789 -1.053665,0.444648 -0.743186,0.185718 -1.518455,0.179011 -2.283193,0.22364 -1.196912,0.06985 -2.384019,0.267754 -3.581588,0.325241 -1.197569,0.05749 -2.428933,-0.03273 -3.527781,-0.512328 -1.067772,-0.466032 -1.960809,-1.283927 -2.619242,-2.245066 -1.263112,-1.843811 -1.666094,-4.135447 -1.870886,-6.361015 -0.246348,-2.677184 -0.251646,-5.374205 -0.561266,-8.044812 -0.07669,-0.661474 -0.172176,-1.323933 -0.15803,-1.989688 0.01415,-0.665754 0.144475,-1.343514 0.489024,-1.913352 0.172274,-0.284919 0.397197,-0.53967 0.667993,-0.733387 0.270797,-0.193718 0.588059,-0.325227 0.918677,-0.364581 0.330618,-0.03935 0.67406,0.01541 0.969311,0.169306 0.295252,0.153896 0.53963,0.408419 0.667709,0.715751 z"
           id="path5535"
           inkscape:path-effect="#path-effect5537"
           inkscape:original-d="m 23.947349,54.442801 c 1.184631,-1.372248 -1.246993,2.370056 -1.870886,3.554685 -0.623894,1.184632 1.247522,6.111827 1.870886,9.167344 0.623365,3.05552 4.490393,3.492587 6.735192,5.238483 2.244799,1.745898 4.116215,0.249716 6.173927,0.374179 2.05771,0.12446 -0.124462,0.74862 -0.187089,1.122532 -0.06263,0.373912 -2.743703,0.998069 -4.115951,1.496708 -1.372248,0.498639 -4.739314,-0.12446 -7.109369,-0.187087 -2.370055,-0.06263 -1.745897,-1.496446 -2.619242,-2.245066 -0.873345,-0.748618 -1.246993,-4.240411 -1.870886,-6.361015 -0.623894,-2.120601 -0.373913,-5.362942 -0.561266,-8.044812 -0.187354,-2.681867 2.370054,-2.743703 3.554684,-4.115951 z" />
        <path
           style="fill:#ff00d4;fill-opacity:1;stroke:#000000;stroke-width:0.387858;stroke-linecap:butt;stroke-linejoin:miter;stroke-miterlimit:4;stroke-dasharray:none;stroke-opacity:1"
           d="m 72.777492,59.307107 c -0.110088,1.358259 -0.297103,2.719305 -0.722425,4.013943 -0.425323,1.294639 -1.100104,2.52667 -2.083905,3.469604 -1.048698,1.005136 -2.410376,1.644133 -3.821991,1.986784 -1.411614,0.342651 -2.877619,0.402574 -4.329663,0.362162 -2.904088,-0.08083 -5.851502,-0.552429 -8.686326,0.08321 -0.919841,0.206251 -1.84087,0.543934 -2.528872,1.188371 -0.344001,0.322219 -0.623041,0.718768 -0.780208,1.163133 -0.157167,0.444365 -0.188566,0.937224 -0.05852,1.390268 0.13914,0.484717 0.45874,0.908552 0.862725,1.210391 0.403985,0.301838 0.888759,0.485837 1.385799,0.571051 0.994081,0.17043 2.010493,-0.04413 2.989959,-0.284731 6.600075,-1.62127 12.828147,-4.451221 19.083046,-7.10937 0.741937,-0.315301 1.487273,-0.629603 2.182781,-1.037224 0.695507,-0.40762 1.344157,-0.914144 1.828094,-1.558884 0.483938,-0.644739 0.795005,-1.43701 0.777723,-2.242979 -0.0086,-0.402985 -0.09939,-0.8054 -0.276453,-1.167504 -0.177064,-0.362104 -0.441269,-0.682963 -0.770373,-0.91569 -0.484178,-0.342388 -1.078302,-0.480298 -1.64692,-0.648618 -0.284308,-0.08416 -0.567105,-0.178088 -0.831802,-0.311692 -0.264697,-0.133603 -0.511968,-0.308617 -0.701784,-0.536398 -0.210793,-0.252955 -0.345035,-0.565671 -0.402993,-0.889802 -0.05796,-0.324131 -0.04129,-0.659363 0.02881,-0.981085 0.108797,-0.499266 0.342456,-0.96181 0.590983,-1.408283 0.248528,-0.446472 0.515436,-0.885733 0.699708,-1.362332 0.184272,-0.4766 0.282959,-1.000659 0.180225,-1.501208 -0.05137,-0.250274 -0.153386,-0.4915 -0.308057,-0.694854 -0.154671,-0.203353 -0.362899,-0.367785 -0.601593,-0.458895 -0.226306,-0.08638 -0.476526,-0.105515 -0.715123,-0.06371 -0.238598,0.0418 -0.465378,0.143552 -0.660957,0.286468 -0.391158,0.285832 -0.649123,0.72859 -0.776424,1.196028 -0.127301,0.467439 -0.132706,0.960257 -0.09103,1.442924 0.04167,0.482666 0.129341,0.960143 0.185562,1.441332 0.130483,1.116791 0.09083,2.246883 0,3.367595 z"
           id="path5539"
           inkscape:path-effect="#path-effect5541"
           inkscape:original-d="m 72.777492,59.307107 c -2.65e-4,1.122268 -1.870623,4.989296 -2.80633,7.483547 -0.935709,2.494251 -11.225056,1.6217 -16.83798,2.432153 -5.612926,0.810453 -2.244801,2.49478 -3.367598,3.741772 -1.122796,1.246994 3.492588,0.998072 5.238483,1.496711 1.745898,0.498639 12.722294,-4.739315 19.083046,-7.10937 6.36075,-2.370053 2.49478,-4.61459 3.741772,-6.922281 1.246995,-2.30769 -2.120074,-0.997542 -3.180506,-1.496708 -1.060434,-0.499168 -0.249187,-1.246994 -0.374179,-1.870887 -0.124989,-0.623893 0.374444,-3.616783 0.561266,-5.425572 0.186825,-1.808787 -1.371719,2.868959 -2.057974,4.30304 -0.686258,1.434081 2.65e-4,2.245328 0,3.367595 z" />
        <path
           style="fill:#ff00d4;fill-opacity:1;stroke:#000000;stroke-width:0.387858;stroke-linecap:butt;stroke-linejoin:miter;stroke-miterlimit:4;stroke-dasharray:none;stroke-opacity:1"
           d="m 65.106856,34.985581 c -0.350061,0.774259 -0.324313,1.683644 -0.05447,2.489375 0.269845,0.805732 0.766977,1.518279 1.332357,2.152601 1.13076,1.268644 2.571497,2.29284 3.399329,3.777013 0.459736,0.824234 0.70661,1.75813 0.779386,2.699099 0.07278,0.940969 -0.02497,1.88994 -0.223851,2.812526 -0.397758,1.845174 -1.191334,3.576329 -1.865156,5.339519 -0.07044,0.184326 -0.140293,0.37203 -0.157056,0.568645 -0.0084,0.09831 -0.0032,0.198285 0.02168,0.293768 0.02485,0.09548 0.06977,0.186426 0.135377,0.260119 0.07489,0.08412 0.175648,0.144048 0.284223,0.173973 0.108574,0.02992 0.224595,0.03028 0.334425,0.0054 0.219661,-0.04985 0.408652,-0.198901 0.537791,-0.383451 0.129139,-0.184551 0.203008,-0.402723 0.248407,-0.623346 0.0454,-0.220623 0.06383,-0.445745 0.09186,-0.669239 0.254811,-2.031093 1.350053,-3.948724 2.986467,-5.178527 1.636414,-1.229802 3.795038,-1.748374 5.806698,-1.369574 1.618435,0.304755 3.081875,1.146596 4.654304,1.636163 0.786215,0.244783 1.609708,0.401676 2.431488,0.349435 0.82178,-0.05224 1.644669,-0.325749 2.268642,-0.863066 0.429236,-0.369624 0.754648,-0.85664 0.941512,-1.39138 0.186865,-0.53474 0.235793,-1.115776 0.151091,-1.675857 -0.169403,-1.120163 -0.881345,-2.130342 -1.840956,-2.732512 -0.634755,-0.398318 -1.365302,-0.625943 -2.105298,-0.744164 -0.739997,-0.118222 -1.49265,-0.130636 -2.242004,-0.124329 -1.498707,0.01261 -3.044956,0.09154 -4.445865,-0.441128 -1.356688,-0.515856 -2.445069,-1.560469 -3.369176,-2.679726 -0.924106,-1.119257 -1.72706,-2.34128 -2.736787,-3.38395 -1.009727,-1.042669 -2.27968,-1.916713 -3.719651,-2.098897 -0.719986,-0.09109 -1.468962,-0.0013 -2.126914,0.304911 -0.657952,0.30623 -1.218877,0.835369 -1.517857,1.496647 z"
           id="path5547"
           inkscape:path-effect="#path-effect5549"
           inkscape:original-d="m 65.106856,34.985581 c -4.490392,-2.120603 3.118408,5.612924 4.677217,8.418989 1.558808,2.806065 -0.872816,7.234362 -1.309621,10.851144 -0.436804,3.616783 2.64e-4,0.748618 0,1.122532 -2.65e-4,0.373912 0.998071,-0.997543 1.49671,-1.496711 0.498637,-0.499168 5.862376,-4.365138 8.793165,-6.548101 2.930793,-2.182966 6.236555,0.748617 9.354434,1.122532 3.117882,0.373911 -0.498636,-3.866235 -0.748353,-5.799749 -0.249716,-1.933514 -5.861849,-0.872818 -8.793167,-1.309621 -2.931322,-0.436806 -8.979993,-4.240414 -13.470385,-6.361015 z" />
        <path
           style="fill:#ff00d4;fill-opacity:1;stroke:#000000;stroke-width:0.387858;stroke-linecap:butt;stroke-linejoin:miter;stroke-miterlimit:4;stroke-dasharray:none;stroke-opacity:1"
           d="m 100.0125,32.808333 c -1.092907,0.09297 -2.131738,0.590712 -2.957522,1.312633 -0.825785,0.721921 -1.446507,1.6592 -1.884302,2.664896 -0.875589,2.011394 -1.028801,4.249313 -1.252166,6.431621 -0.358639,3.503958 -0.936968,7.01952 -2.245064,10.289876 -1.271602,3.179117 -3.216336,6.085756 -4.171483,9.373834 -0.477573,1.644038 -0.697741,3.385585 -0.428304,5.076248 0.269438,1.690664 1.057274,3.328927 2.354723,4.445872 0.417747,0.359629 0.887579,0.664711 1.404348,0.856533 0.516769,0.191821 1.08248,0.267132 1.625335,0.171457 0.542855,-0.09567 1.060272,-0.369046 1.411962,-0.793498 0.351691,-0.424452 0.525159,-1.002502 0.422662,-1.544111 -0.06771,-0.357809 -0.249656,-0.687794 -0.48685,-0.964112 -0.237193,-0.276317 -0.528401,-0.501876 -0.834765,-0.698734 -0.612728,-0.393717 -1.295582,-0.681825 -1.858894,-1.143483 -0.5164,-0.423212 -0.916428,-0.984714 -1.159025,-1.606746 -0.242598,-0.622031 -0.328424,-1.303017 -0.259815,-1.967148 0.137217,-1.328261 0.901914,-2.560601 1.980106,-3.348389 1.294537,-0.945862 2.931704,-1.247475 4.484707,-1.645801 0.776501,-0.199164 1.549895,-0.430147 2.267473,-0.787502 0.717578,-0.357356 1.381301,-0.848044 1.853894,-1.495559 0.45113,-0.618111 0.71372,-1.35973 0.83794,-2.114814 0.12422,-0.755084 0.11511,-1.526265 0.0608,-2.28957 -0.10857,-1.526611 -0.39578,-3.065202 -0.1504,-4.57587 0.29138,-1.79388 1.30345,-3.37474 2.26046,-4.919744 0.95702,-1.545005 1.90521,-3.183765 2.04258,-4.995956 0.11199,-1.477395 -0.36089,-3.005896 -1.34917,-4.109763 -0.98829,-1.103868 -2.49295,-1.747757 -3.96925,-1.62217 z"
           id="path5551"
           inkscape:path-effect="#path-effect5553"
           inkscape:original-d="m 100.0125,32.808333 c -1.773077,-1.910908 -4.062395,6.939698 -6.09399,10.40915 -2.031593,3.469449 -1.496444,6.860183 -2.245064,10.289876 -0.748617,3.429693 -1.496444,12.597569 -2.245064,18.895954 -0.74862,6.298388 3.243136,-0.872816 4.864307,-1.309619 1.621171,-0.436806 -2.120075,-1.870622 -3.180509,-2.806329 -1.060434,-0.93571 0.374444,-4.61459 0.561266,-6.922283 0.186825,-2.307691 5.737651,-2.618976 8.606074,-3.928862 2.86843,-1.309886 0.49917,-5.986573 0.74836,-8.980254 0.24919,-2.993684 2.86896,-6.610202 4.30304,-9.9157 1.43408,-3.305498 -3.54535,-3.821025 -5.31842,-5.731933 z" />
        <path
           style="fill:#ff00d4;fill-opacity:1;stroke:#000000;stroke-width:0.387858;stroke-linecap:butt;stroke-linejoin:miter;stroke-miterlimit:4;stroke-dasharray:none;stroke-opacity:1"
           d="m 62.674703,75.209645 c 0.01835,-0.657512 0.323621,-1.289533 0.777271,-1.765831 0.45365,-0.476299 1.04717,-0.804641 1.672254,-1.009406 1.250167,-0.409531 2.597604,-0.339394 3.911489,-0.405271 3.319725,-0.166448 6.702009,-1.321471 8.980258,-3.741772 0.987754,-1.049342 1.753502,-2.333203 2.057974,-3.741775 0.260658,-1.205875 0.176518,-2.475028 -0.169707,-3.659176 -0.346225,-1.184147 -0.949048,-2.28516 -1.70118,-3.263104 -0.275035,-0.357609 -0.574233,-0.706346 -0.748353,-1.122532 -0.139524,-0.333493 -0.192766,-0.70076 -0.169306,-1.061502 0.02346,-0.360741 0.122514,-0.714924 0.275385,-1.042514 0.305741,-0.65518 0.819177,-1.194836 1.390629,-1.637759 1.570884,-1.217567 3.641995,-1.754807 5.612662,-1.496708 0.899145,0.117761 1.791815,0.401583 2.523153,0.937751 0.731337,0.536167 1.288103,1.343589 1.405708,2.242755 0.100845,0.771026 -0.122011,1.55698 -0.489501,2.242255 -0.367491,0.685275 -0.87391,1.284528 -1.381386,1.873696 -1.187783,1.37899 -2.406557,2.738702 -3.432995,4.241655 -1.026438,1.502952 -1.862091,3.166977 -2.194694,4.956338 -0.332604,1.789362 -0.128804,3.717187 0.799401,5.282714 0.464102,0.782764 1.104101,1.464969 1.873996,1.95012 0.769895,0.485152 1.670187,0.76942 2.580115,0.781332 0.420231,0.0055 0.840438,-0.04596 1.260151,-0.02441 0.419714,0.02155 0.8528,0.125212 1.172,0.39859 0.206565,0.176912 0.355055,0.418688 0.428079,0.680669 0.07302,0.261982 0.07146,0.543143 0.0043,0.806676 -0.134419,0.527067 -0.52863,0.967501 -1.009701,1.22135 -0.48107,0.253848 -1.04122,0.332838 -1.583698,0.293019 -0.542477,-0.03982 -1.070751,-0.193229 -1.580706,-0.382474 -1.807795,-0.670874 -3.410407,-1.787396 -5.120813,-2.677735 -0.855203,-0.445169 -1.743937,-0.836202 -2.67723,-1.078095 -0.933293,-0.241894 -1.915002,-0.331552 -2.866012,-0.173031 -1.140337,0.190079 -2.191637,0.725626 -3.19601,1.298105 -1.004374,0.572479 -1.991996,1.19334 -3.081225,1.580739 -1.089229,0.3874 -2.31379,0.524827 -3.394168,0.113386 -0.540188,-0.20572 -1.032685,-0.548377 -1.385107,-1.006551 -0.352421,-0.458174 -0.559111,-1.03369 -0.542987,-1.6115 z"
           id="path5555"
           inkscape:path-effect="#path-effect5557"
           inkscape:original-d="m 62.674703,75.209645 c -3.866764,0.12446 4.240943,-2.120074 6.361014,-3.180508 2.120075,-1.060435 5.987103,-2.494251 8.980258,-3.741772 2.993154,-1.247524 1.372248,-2.494254 2.057974,-3.741775 0.685728,-1.247523 -1.246992,-4.61459 -1.870887,-6.92228 -0.623893,-2.307691 -0.498637,-0.748091 -0.748353,-1.122532 -0.249717,-0.374444 0.998069,-2.494251 1.496708,-3.741775 0.498639,-1.247521 3.742039,-0.99754 5.612662,-1.496708 1.87062,-0.499168 2.619504,2.120601 3.928861,3.180506 1.309357,1.059905 -1.246994,2.744232 -1.870887,4.115951 -0.623893,1.371719 -0.249187,11.475037 -0.374177,17.212159 -0.124991,5.737119 1.621698,0.249716 2.432151,0.374176 0.810453,0.12446 -2.494251,1.746425 -3.741772,2.61924 -1.247524,0.872819 -7.109105,-2.618975 -10.664055,-3.928861 -3.554949,-1.309883 -7.732733,0.249716 -11.599497,0.374179 z" />
        <path
           style="fill:#ff00d4;fill-opacity:1;stroke:#000000;stroke-width:0.387858;stroke-linecap:butt;stroke-linejoin:miter;stroke-miterlimit:4;stroke-dasharray:none;stroke-opacity:1"
           d="m 85.312431,35.733937 c 0.607381,0.03547 1.213622,-0.0846 1.800221,-0.246064 0.586599,-0.161467 1.161761,-0.364911 1.754464,-0.502292 0.739265,-0.171352 1.498471,-0.238264 2.245064,-0.374179 0.335377,-0.06105 0.674072,-0.136414 1.013673,-0.106804 0.1698,0.0148 0.338588,0.05652 0.489528,0.135691 0.15094,0.07917 0.283507,0.197085 0.367686,0.345292 0.106308,0.187167 0.13031,0.414048 0.0933,0.626093 -0.03701,0.212045 -0.131578,0.410618 -0.249021,0.591006 -0.234887,0.360777 -0.561831,0.656676 -0.779721,1.027965 -0.274608,0.467939 -0.357098,1.022538 -0.3949,1.563784 -0.0378,0.541246 -0.03701,1.089804 -0.166366,1.616722 -0.07706,0.313886 -0.201146,0.618632 -0.387874,0.882441 -0.186728,0.263809 -0.438163,0.485609 -0.734658,0.61427 -0.421538,0.182922 -0.912727,0.166755 -1.346827,0.01605 -0.4341,-0.150706 -0.815615,-0.427295 -1.144882,-0.747823 -0.658533,-0.641057 -1.126641,-1.461514 -1.811331,-2.074556 -0.760501,-0.68092 -1.748195,-1.065674 -2.750349,-1.259841 -1.002155,-0.194167 -2.028952,-0.210403 -3.0494,-0.23687 -0.780986,-0.02026 -1.58179,-0.05101 -2.303124,-0.351052 -0.360667,-0.150022 -0.696717,-0.368058 -0.956773,-0.659534 -0.260057,-0.291475 -0.441176,-0.65889 -0.481877,-1.047388 -0.04592,-0.438294 0.09047,-0.88781 0.348556,-1.245025 0.258084,-0.357216 0.632374,-0.623618 1.044542,-0.779591 0.412169,-0.155973 0.860858,-0.204519 1.300315,-0.171528 0.439456,0.03299 0.87041,0.145858 1.282078,0.303145 0.823338,0.314574 1.566757,0.802398 2.338129,1.228809 0.771372,0.426411 1.59966,0.799901 2.479547,0.85128 z"
           id="path5559"
           inkscape:path-effect="#path-effect5561"
           inkscape:original-d="m 85.312431,35.733937 c 2.930791,0.0621 2.806065,-0.623896 3.554685,-0.748356 0.74862,-0.124462 1.621171,-0.499168 2.245064,-0.374179 0.623896,0.124992 2.182437,-0.374441 1.870887,0.374179 -0.311549,0.74862 -0.74862,1.18463 -0.935442,2.245064 -0.186825,1.060434 -0.187354,2.68134 -0.561266,3.180506 -0.373914,0.499168 0.31155,2.431888 -1.122532,1.496711 -1.434084,-0.935178 -2.370055,-2.307691 -4.30304,-2.80633 -1.932985,-0.498639 -4.552757,-0.810982 -5.799749,-1.496711 -1.246994,-0.685726 -2.494251,-1.371718 -3.741774,-2.057974 -1.247523,-0.686256 5.862376,0.124991 8.793167,0.18709 z" />
      </g>
    </g>
    <path
       style="fill:#5500d4;fill-opacity:0.952941;fill-rule:evenodd;stroke:#ffffff;stroke-width:1.1;stroke-miterlimit:4;stroke-dasharray:none;stroke-opacity:1"
       id="path5700"
       sodipodi:type="arc"
       sodipodi:cx="26.15448"
       sodipodi:cy="26.09333"
       sodipodi:rx="3.3754153"
       sodipodi:ry="3.836807"
       sodipodi:start="3.1858717"
       sodipodi:end="3.0498058"
       sodipodi:open="true"
       sodipodi:arc-type="arc"
       d="m 22.782373,25.923496 a 3.3754153,3.836807 0 0 1 3.406747,-3.666771 3.3754153,3.836807 0 0 1 3.339823,3.745475 3.3754153,3.836807 0 0 1 -3.179572,3.921537 3.3754153,3.836807 0 0 1 -3.556098,-3.478732" />
    <path
       style="fill:#5500d4;fill-opacity:0.952941;fill-rule:evenodd;stroke:#ffffff;stroke-width:1.1;stroke-miterlimit:4;stroke-dasharray:none;stroke-opacity:1"
       id="path5702"
       sodipodi:type="arc"
       sodipodi:cx="195.98918"
       sodipodi:cy="37.673126"
       sodipodi:rx="3.3754153"
       sodipodi:ry="3.836807"
       sodipodi:start="3.1858717"
       sodipodi:end="3.0498058"
       sodipodi:open="true"
       sodipodi:arc-type="arc"
       d="m 192.61707,37.503292 a 3.3754153,3.836807 0 0 1 3.40675,-3.666771 3.3754153,3.836807 0 0 1 3.33982,3.745475 3.3754153,3.836807 0 0 1 -3.17957,3.921537 3.3754153,3.836807 0 0 1 -3.5561,-3.478733" />
    <path
       style="fill:#5500d4;fill-opacity:0.952941;fill-rule:evenodd;stroke:#ffffff;stroke-width:1.1;stroke-miterlimit:4;stroke-dasharray:none;stroke-opacity:1"
       id="path5704"
       sodipodi:type="arc"
       sodipodi:cx="219.13188"
       sodipodi:cy="36.180374"
       sodipodi:rx="3.3754153"
       sodipodi:ry="3.836807"
       sodipodi:start="3.1858717"
       sodipodi:end="3.0498058"
       sodipodi:open="true"
       sodipodi:arc-type="arc"
       d="m 215.75977,36.010539 a 3.3754153,3.836807 0 0 1 3.40675,-3.66677 3.3754153,3.836807 0 0 1 3.33982,3.745475 3.3754153,3.836807 0 0 1 -3.17957,3.921536 3.3754153,3.836807 0 0 1 -3.55609,-3.478732" />
    <path
       style="fill:#5500d4;fill-opacity:0.952941;fill-rule:evenodd;stroke:#ffffff;stroke-width:1.1;stroke-miterlimit:4;stroke-dasharray:none;stroke-opacity:1"
       id="path5706"
       sodipodi:type="arc"
       sodipodi:cx="134.89943"
       sodipodi:cy="30.263395"
       sodipodi:rx="3.3754153"
       sodipodi:ry="3.836807"
       sodipodi:start="3.1858717"
       sodipodi:end="3.0498058"
       sodipodi:open="true"
       sodipodi:arc-type="arc"
       d="m 131.52732,30.093561 a 3.3754153,3.836807 0 0 1 3.40675,-3.666771 3.3754153,3.836807 0 0 1 3.33982,3.745475 3.3754153,3.836807 0 0 1 -3.17957,3.921537 3.3754153,3.836807 0 0 1 -3.5561,-3.478733" />
    <path
       style="fill:#5500d4;fill-opacity:0.952941;fill-rule:evenodd;stroke:#ffffff;stroke-width:1.1;stroke-miterlimit:4;stroke-dasharray:none;stroke-opacity:1"
       id="path5708"
       sodipodi:type="arc"
       sodipodi:cx="159.42924"
       sodipodi:cy="7.4916773"
       sodipodi:rx="3.3754153"
       sodipodi:ry="3.836807"
       sodipodi:start="3.1858717"
       sodipodi:end="3.0498058"
       sodipodi:open="true"
       sodipodi:arc-type="arc"
       inkscape:transform-center-x="-0.74835468"
       inkscape:transform-center-y="-2.9934187"
       d="m 156.05714,7.3218426 a 3.3754153,3.836807 0 0 1 3.40674,-3.6667703 3.3754153,3.836807 0 0 1 3.33983,3.7454744 3.3754153,3.836807 0 0 1 -3.17957,3.9215373 3.3754153,3.836807 0 0 1 -3.5561,-3.4787326" />
  </g>
</svg>
